<?xml version="1.0" standalone="no"?>
<!DOCTYPE svg PUBLIC "-//W3C//DTD SVG 20010904//EN"
 "http://www.w3.org/TR/2001/REC-SVG-20010904/DTD/svg10.dtd">
<svg version="1.0" xmlns="http://www.w3.org/2000/svg"
 width="256.000000pt" height="256.000000pt" viewBox="0 0 256.000000 256.000000"
 preserveAspectRatio="xMidYMid meet">
<metadata>
Created by potrace 1.11, written by Peter Selinger 2001-2013
</metadata>
<g transform="translate(0.000000,256.000000) scale(0.100000,-0.100000)"
fill="#000000" stroke="none">
<path d="M1520 2471 c-42 -46 -63 -136 -59 -254 l4 -100 -80 -22 c-178 -50
-317 -116 -428 -204 -130 -103 -210 -215 -278 -386 l-35 -90 -168 -126 c-92
-70 -193 -151 -225 -180 -32 -30 -68 -61 -80 -69 -29 -18 -101 -114 -101 -133
0 -21 40 -54 99 -80 40 -17 65 -38 95 -77 47 -62 106 -97 184 -109 33 -5 60
-16 73 -29 37 -41 80 -55 159 -55 88 0 155 25 278 102 42 26 101 56 129 66 53
19 53 19 120 -3 100 -32 211 -99 250 -150 71 -94 81 -233 28 -410 -16 -51 -25
-95 -22 -99 12 -11 99 29 160 76 103 77 184 216 217 371 21 98 22 99 36 60 17
-48 17 -200 0 -284 -8 -38 -13 -73 -10 -78 8 -12 96 37 161 89 230 186 354
371 401 598 47 224 9 396 -113 520 -30 30 -50 55 -44 55 26 0 163 -78 180
-102 3 -5 10 -3 16 4 22 27 -26 118 -97 188 -37 36 -79 73 -93 83 -35 24 -34
37 3 37 17 0 48 9 68 19 45 23 104 80 96 93 -4 6 -11 5 -17 -1 -6 -6 -30 -11
-52 -11 -50 0 -120 34 -260 125 -55 36 -117 74 -137 85 -32 17 -39 29 -63 102
-63 193 -174 341 -292 386 -32 12 -62 22 -67 22 -4 0 -20 -13 -36 -29z m-382
-889 c2 -7 -3 -12 -12 -12 -9 0 -16 7 -16 16 0 17 22 14 28 -4z"/>
<path d="M1060 2285 c-24 -29 4 -186 47 -260 11 -18 13 -19 30 -3 10 9 61 31
113 48 52 18 101 35 109 40 18 10 -108 144 -161 171 -45 23 -120 25 -138 4z"/>
</g>
</svg>
